<svg xmlns="http://www.w3.org/2000/svg" width="1024" height="1280" viewBox="0 0 1024 1280">
<defs>
  <linearGradient id="teal" x1="0" x2="1"><stop offset="0" stop-color="#F6D777"/><stop offset="0.52" stop-color="#B77916"/><stop offset="0.55" stop-color="#0B7C70"/><stop offset="1" stop-color="#28E0C0"/></linearGradient>
</defs>
<rect width="1024" height="1280" rx="90" fill="#0B0D0F"/>
<g transform="translate(0,30)">

    <defs>
      <linearGradient id="gold" x1="0" x2="1"><stop offset="0" stop-color="#F6D777"/><stop offset="1" stop-color="#B77916"/></linearGradient>
      <linearGradient id="inf" x1="0" x2="1"><stop offset="0" stop-color="#F6D777"/><stop offset="0.48" stop-color="#B77916"/><stop offset="0.52" stop-color="#0B7C70"/><stop offset="1" stop-color="#28E0C0"/></linearGradient>
      <filter id="shadow" x="-30%" y="-30%" width="160%" height="160%"><feDropShadow dx="0" dy="10.24" stdDeviation="12.288" flood-opacity="0.35"/></filter>
    </defs>
    
    <polygon points="805.3,633.5 633.5,805.3 390.5,805.3 218.7,633.5 218.7,390.5 390.5,218.7 633.5,218.7 805.3,390.5" fill="none" stroke="url(#gold)" stroke-width="35.84" stroke-linejoin="round" filter="url(#shadow)"/>
    <path d="M 512.0,512.0 C 447.5,399.4 287.7,399.4 204.8,512.0 C 287.7,624.6 447.5,624.6 512.0,512.0 C 576.5,399.4 736.3,399.4 819.2,512.0 C 736.3,624.6 576.5,624.6 512.0,512.0" fill="none" stroke="url(#inf)" stroke-width="66.56" stroke-linecap="round" stroke-linejoin="round" filter="url(#shadow)"/>
    
</g>
<text x="512" y="1110" text-anchor="middle" font-family="Arial, Helvetica, sans-serif" font-size="90" font-weight="500" letter-spacing="14" fill="url(#teal)">OCTACORE</text>
<text x="512" y="1180" text-anchor="middle" font-family="Arial, Helvetica, sans-serif" font-size="30" letter-spacing="5" fill="#F4F5F6">SYKEMELDINGSKALKULATOR</text>
</svg>